<svg width="17" height="19" viewBox="0 0 17 19" fill="none" xmlns="http://www.w3.org/2000/svg">
<path d="M0 11.0021V9.96141C0.0226652 9.78455 0.0458829 9.60824 0.0679953 9.43138C0.296305 7.60679 1.0332 6.01561 2.28421 4.67447C3.72925 3.12209 5.51759 2.24334 7.61882 2.00328C7.90517 1.97057 5.74997 2.19654 7.12664 2.07222V11.0021H17C16.8389 12.5101 16.9596 11.3236 16.901 11.7239C16.6589 13.3861 15.9933 14.8658 14.8706 16.1132C12.9291 18.2649 10.4934 19.2219 7.61605 18.9569C5.66298 18.7767 3.9747 17.9589 2.56835 16.5862C1.2894 15.3552 0.437007 13.7459 0.135991 11.9939C0.0779465 11.6674 0.0431191 11.3347 0 11.0021Z" fill="#2B2B2E"/>
<path d="M9.5013 0.00175831C9.81266 0.050407 10.124 0.0879191 10.4292 0.150049C12.0526 0.46518 13.5455 1.35425 14.6928 2.68916C16 4.1873 16.7436 5.99492 16.9512 8.08154C16.9808 8.38164 16.9839 8.68525 17 9H9.01609V8.76203C9.01609 5.92244 9.01609 3.08284 9.01609 0.243243C9.01609 0.162357 9.00571 0.0808857 9 0L9.5013 0.00175831Z" fill="#2B2B2E"/>
</svg>
