<svg width="14" height="12" viewBox="0 0 14 12" fill="none" xmlns="http://www.w3.org/2000/svg">
<path d="M14 1.41717V1.75228C13.9858 1.80084 13.9694 1.84906 13.9581 1.89831C13.2775 4.90616 12.597 7.91481 11.9164 10.9243C11.8697 11.1288 11.8198 11.3376 11.7341 11.5287C11.5883 11.8549 11.3061 11.9647 10.9506 11.8511C10.8258 11.8113 10.7079 11.7544 10.6006 11.6823C9.60568 11.0004 8.6151 10.3133 7.62198 9.62928C7.43276 9.49909 7.49365 9.49427 7.31828 9.65132C6.81929 10.0977 6.32163 10.5454 5.82531 10.9945C5.67182 11.1323 5.49719 11.2177 5.26531 11.2077C5.27917 11.0162 5.29156 10.833 5.30542 10.6498C5.36594 9.84867 5.42536 9.04723 5.49135 8.24647C5.4989 8.18097 5.5305 8.12004 5.58068 8.07427C7.46314 6.47552 9.34682 4.8786 11.2317 3.28352C11.3232 3.20603 11.4169 3.12992 11.5001 3.04519C11.5159 3.02848 11.5274 3.00853 11.5338 2.9869C11.5401 2.96527 11.541 2.94255 11.5365 2.92052C11.5235 2.90205 11.5056 2.88706 11.4847 2.87699C11.4637 2.86692 11.4404 2.8621 11.4169 2.863C11.2875 2.89434 11.1493 2.92258 11.0378 2.98733C10.1992 3.47329 9.36833 3.96787 8.53453 4.45968C6.95248 5.39418 5.36934 6.32765 3.7851 7.26008C3.73734 7.28832 3.6637 7.31209 3.61521 7.29831C2.5584 6.99293 1.50269 6.684 0.448073 6.37151C0.261042 6.3164 0.102812 6.22169 0 6.05809V5.90345C0.056875 5.83216 0.0991667 5.73917 0.173906 5.69371C0.350195 5.58118 0.538057 5.48576 0.734635 5.40888C3.7038 4.33202 6.67455 3.25827 9.64687 2.18761L13.0466 0.959446C13.487 0.800673 13.8961 0.928449 13.9865 1.39478C13.9898 1.40283 13.9943 1.41038 14 1.41717Z" fill="#808080"/>
</svg>
