<svg width="20" height="16" viewBox="0 0 20 16" fill="none" xmlns="http://www.w3.org/2000/svg">
<path d="M0 5.344C0.1 5.09088 0.296354 4.95702 0.540625 4.85129C3.58299 3.53636 6.62413 2.21623 9.66406 0.890879C9.90729 0.786712 10.1229 0.814837 10.3557 0.9164C13.0443 2.08723 15.734 3.25546 18.425 4.42109C18.8177 4.59192 19.212 4.76015 19.601 4.9388C19.7106 4.98489 19.8034 5.06338 19.8671 5.16373C19.9308 5.26409 19.9622 5.38151 19.9573 5.50025C19.9614 5.61506 19.932 5.72858 19.8726 5.82691C19.8132 5.92525 19.7265 6.00413 19.6229 6.0539C19.4766 6.13255 19.3625 6.11588 19.2812 5.96275C19.1891 5.79088 19.0323 5.72682 18.8495 5.70234L11.7792 4.79244C11.2193 4.72005 10.6594 4.64505 10.0995 4.57213C9.71979 4.52005 9.39687 4.7638 9.35885 5.12213C9.32083 5.48046 9.57187 5.76484 9.94792 5.81275C11.9309 6.069 13.9135 6.32612 15.8958 6.58411C16.5396 6.66692 17.1833 6.75077 17.8276 6.82786C18.0068 6.84973 18.0911 6.92577 18.0906 7.11588C18.0875 9.37525 18.0866 11.6343 18.088 13.893C18.088 14.2789 17.8276 14.556 17.474 14.5612C17.1203 14.5664 16.8422 14.2794 16.8422 13.8872C16.8401 11.7584 16.8401 9.62977 16.8422 7.5013V7.27109C16.7516 7.30807 16.6859 7.33307 16.6224 7.36067C14.5453 8.26345 12.4687 9.16623 10.3927 10.069C10.265 10.1303 10.1252 10.1622 9.98359 10.1622C9.84196 10.1622 9.70214 10.1303 9.57448 10.069C6.54219 8.74748 3.50694 7.43064 0.46875 6.11848C0.36411 6.07603 0.268856 6.01338 0.188428 5.93411C0.107999 5.85485 0.0439716 5.76052 0 5.6565V5.344Z" fill="#2B2B2E"/>
<path d="M3.74193 10.4228V9.32902C3.74193 9.00922 3.84609 8.94047 4.13411 9.0686C5.78828 9.78579 7.44505 10.4967 9.09453 11.2259C9.69141 11.4894 10.2638 11.4894 10.8602 11.229C12.5044 10.5051 14.1549 9.79516 15.8029 9.07954C16.1227 8.94047 16.2195 9.00089 16.2195 9.34308C16.2195 9.92901 16.1945 10.516 16.2247 11.0998C16.2846 12.2415 15.7815 13.0905 14.9107 13.7603C14.0674 14.4061 13.0997 14.7707 12.0711 14.979C10.293 15.3337 8.53255 15.267 6.80755 14.6795C5.87318 14.3613 5.02474 13.8946 4.38203 13.117C3.95755 12.6035 3.7263 12.017 3.74088 11.341C3.74974 11.0342 3.74193 10.7285 3.74193 10.4228Z" fill="#2B2B2E"/>
</svg>
