<svg width="16" height="14" viewBox="0 0 16 14" fill="none" xmlns="http://www.w3.org/2000/svg">
<path d="M16 0.632282V1.0377C15.9838 1.09645 15.965 1.15478 15.9521 1.21437C15.1743 4.85326 14.3965 8.49312 13.6188 12.134C13.5654 12.3815 13.5083 12.634 13.4104 12.8652C13.2438 13.2598 12.9212 13.3927 12.515 13.2552C12.3724 13.2071 12.2376 13.1383 12.115 13.051C10.9779 12.226 9.84583 11.3948 8.71083 10.5673C8.49458 10.4098 8.56417 10.4039 8.36375 10.594C7.79347 11.134 7.22472 11.6756 6.6575 12.219C6.48208 12.3856 6.2825 12.4889 6.0175 12.4769C6.03333 12.2452 6.0475 12.0235 6.06333 11.8019C6.1325 10.8327 6.20042 9.86312 6.27583 8.89437C6.28445 8.81512 6.32057 8.7414 6.37792 8.68603C8.52931 6.75187 10.6821 4.81992 12.8363 2.8902C12.9408 2.79645 13.0479 2.70437 13.1429 2.60187C13.161 2.58165 13.1742 2.55751 13.1815 2.53134C13.1887 2.50517 13.1898 2.47768 13.1846 2.45103C13.1697 2.42869 13.1493 2.41056 13.1253 2.39838C13.1014 2.38619 13.0748 2.38036 13.0479 2.38145C12.9 2.41937 12.7421 2.45353 12.6146 2.53187C11.6562 3.11978 10.7067 3.71812 9.75375 4.31312C7.94569 5.44367 6.13639 6.57298 4.32583 7.70103C4.27125 7.7352 4.18708 7.76395 4.13167 7.74728C2.92389 7.37784 1.71736 7.00409 0.512083 6.62603C0.298333 6.55937 0.1175 6.44478 0 6.24687V6.05978C0.065 5.97353 0.113333 5.86103 0.19875 5.80603C0.400223 5.6699 0.614922 5.55446 0.839583 5.46145C4.23292 4.15867 7.62806 2.85964 11.025 1.56437L14.9104 0.0785332C15.4138 -0.11355 15.8813 0.0410338 15.9846 0.6052C15.9883 0.614945 15.9935 0.624072 16 0.632282Z" fill="#EBEBF5"/>
</svg>
