<svg width="11" height="12" viewBox="0 0 11 12" fill="none" xmlns="http://www.w3.org/2000/svg">
<path d="M5.11958 1.17082C5.23932 0.802297 5.76068 0.802296 5.88042 1.17082L6.86954 4.215C6.92309 4.3798 7.07667 4.49139 7.24996 4.49139H10.4508C10.8383 4.49139 10.9994 4.98724 10.6859 5.215L8.09638 7.0964C7.95618 7.19826 7.89752 7.37881 7.95107 7.54361L8.94018 10.5878C9.05992 10.9563 8.63813 11.2628 8.32465 11.035L5.73511 9.1536C5.59492 9.05174 5.40508 9.05174 5.26489 9.1536L2.67536 11.035C2.36187 11.2628 1.94008 10.9563 2.05982 10.5878L3.04893 7.54361C3.10248 7.37881 3.04382 7.19826 2.90362 7.0964L0.314093 5.215C0.000607252 4.98724 0.161717 4.49139 0.549206 4.49139H3.75004C3.92333 4.49139 4.07691 4.37981 4.13046 4.215L5.11958 1.17082Z" fill="#B9B9B9"/>
</svg>
