<svg width="20" height="20" viewBox="0 0 20 20" fill="none" xmlns="http://www.w3.org/2000/svg">
<path d="M3.33333 11.6667H5C5.45833 11.6667 5.83333 11.2917 5.83333 10.8333V9.16666C5.83333 8.70832 5.45833 8.33332 5 8.33332H3.33333C2.875 8.33332 2.5 8.70832 2.5 9.16666V10.8333C2.5 11.2917 2.875 11.6667 3.33333 11.6667ZM3.33333 15.8333H5C5.45833 15.8333 5.83333 15.4583 5.83333 15V13.3333C5.83333 12.875 5.45833 12.5 5 12.5H3.33333C2.875 12.5 2.5 12.875 2.5 13.3333V15C2.5 15.4583 2.875 15.8333 3.33333 15.8333ZM3.33333 7.49999H5C5.45833 7.49999 5.83333 7.12499 5.83333 6.66666V4.99999C5.83333 4.54166 5.45833 4.16666 5 4.16666H3.33333C2.875 4.16666 2.5 4.54166 2.5 4.99999V6.66666C2.5 7.12499 2.875 7.49999 3.33333 7.49999ZM7.5 11.6667H16.6667C17.125 11.6667 17.5 11.2917 17.5 10.8333V9.16666C17.5 8.70832 17.125 8.33332 16.6667 8.33332H7.5C7.04167 8.33332 6.66667 8.70832 6.66667 9.16666V10.8333C6.66667 11.2917 7.04167 11.6667 7.5 11.6667ZM7.5 15.8333H16.6667C17.125 15.8333 17.5 15.4583 17.5 15V13.3333C17.5 12.875 17.125 12.5 16.6667 12.5H7.5C7.04167 12.5 6.66667 12.875 6.66667 13.3333V15C6.66667 15.4583 7.04167 15.8333 7.5 15.8333ZM6.66667 4.99999V6.66666C6.66667 7.12499 7.04167 7.49999 7.5 7.49999H16.6667C17.125 7.49999 17.5 7.12499 17.5 6.66666V4.99999C17.5 4.54166 17.125 4.16666 16.6667 4.16666H7.5C7.04167 4.16666 6.66667 4.54166 6.66667 4.99999Z" fill="#EBEBF5"/>
</svg>
