<svg width="8" height="16" viewBox="0 0 8 16" fill="none" xmlns="http://www.w3.org/2000/svg">
<path d="M2.3036 16C2.30652 15.9532 2.31195 15.9068 2.31195 15.86C2.31195 13.5729 2.31195 11.2853 2.31195 8.99729V8.84439H0V5.9956H2.31237C2.31237 5.9204 2.31237 5.85982 2.31237 5.79966C2.31906 4.9662 2.29733 4.13108 2.34078 3.29929C2.39258 2.30917 2.73015 1.426 3.51054 0.764245C4.12425 0.244118 4.85577 0.00807602 5.64453 0.000556111C6.39318 -0.00654603 7.14266 0.0561197 7.89173 0.0891237C7.92406 0.0937118 7.95594 0.101121 7.98698 0.111266V2.64673C7.9239 2.64673 7.86165 2.64673 7.80316 2.64673C7.2563 2.65508 6.70818 2.63963 6.16382 2.67973C5.57894 2.72151 5.23469 3.03233 5.1996 3.61805C5.15365 4.40096 5.18832 5.18846 5.18832 5.99142H7.75052C7.63145 6.94812 7.51448 7.88644 7.39625 8.83645H5.17788C5.1737 8.8987 5.16743 8.94841 5.16743 8.99813C5.16743 11.2859 5.16743 13.5734 5.16743 15.8609C5.16743 15.9073 5.1762 15.9532 5.18038 15.9996L2.3036 16Z" fill="#EBEBF5"/>
</svg>
