<svg width="9" height="10" viewBox="0 0 9 10" fill="none" xmlns="http://www.w3.org/2000/svg">
<path d="M8.625 1.8H7.125V0.8C7.125 0.35875 6.78867 0 6.375 0H2.625C2.21133 0 1.875 0.35875 1.875 0.8V1.8H0.375C0.167578 1.8 0 1.97875 0 2.2V2.6C0 2.655 0.0421875 2.7 0.09375 2.7H0.801562L1.09102 9.2375C1.10977 9.66375 1.44023 10 1.83984 10H7.16016C7.56094 10 7.89023 9.665 7.90898 9.2375L8.19844 2.7H8.90625C8.95781 2.7 9 2.655 9 2.6V2.2C9 1.97875 8.83242 1.8 8.625 1.8ZM6.28125 1.8H2.71875V0.9H6.28125V1.8Z" fill="white"/>
</svg>
