<svg width="22" height="23" viewBox="0 0 22 23" fill="none" xmlns="http://www.w3.org/2000/svg">
<g clip-path="url(#clip0_99_3548)">
<path d="M21.9999 11.4999C21.9999 17.5751 17.0751 22.5 11 22.5C4.92484 22.5 0 17.5751 0 11.4999C0 5.42484 4.92484 0.5 11 0.5C17.075 0.5 21.9999 5.42484 21.9999 11.4999Z" fill="#345D9D"/>
<path d="M19.6646 11.5001C19.6646 16.2851 15.7854 20.1647 11.0001 20.1647C6.21493 20.1647 2.33545 16.2851 2.33545 11.5001C2.33545 6.71473 6.21493 2.83545 11.0001 2.83545C15.7854 2.83545 19.6646 6.71466 19.6646 11.5001Z" fill="#345D9D"/>
<path d="M10.3571 14.4384L11.0716 11.7481L12.7631 11.1301L13.1839 9.54901L13.1695 9.50979L11.5044 10.1181L12.7041 5.60071H9.30172L7.73279 11.496L6.42283 11.9745L5.98999 13.6046L7.29894 13.1264L6.37426 16.6008H15.4294L16.0099 14.4384H10.3571Z" fill="white"/>
</g>
<defs>
<clipPath id="clip0_99_3548">
<rect width="22" height="22" fill="white" transform="translate(0 0.5)"/>
</clipPath>
</defs>
</svg>
