<svg width="36" height="37" viewBox="0 0 36 37" fill="none" xmlns="http://www.w3.org/2000/svg">
<path d="M35.4612 22.357C33.0568 32.001 23.2891 37.8702 13.644 35.4652C4.00287 33.0609 -1.86631 23.2926 0.539192 13.6492C2.94245 4.00407 12.7102 -1.86568 22.3525 0.538705C31.997 2.94309 37.8656 12.7125 35.4612 22.357Z" fill="#F7931A"/>
<path d="M25.9389 15.4342C26.2973 13.0388 24.4735 11.7511 21.9796 10.8921L22.7886 7.64724L20.8134 7.155L20.0259 10.3143C19.5066 10.1849 18.9733 10.0629 18.4434 9.94192L19.2366 6.76177L17.2626 6.26953L16.453 9.51325C16.0232 9.41537 15.6013 9.31861 15.1918 9.21678L15.194 9.20666L12.4701 8.52652L11.9447 10.6361C11.9447 10.6361 13.4102 10.972 13.3792 10.9928C14.1792 11.1925 14.3237 11.7219 14.2996 12.1415L13.3781 15.8381C13.4332 15.8522 13.5047 15.8724 13.5834 15.9039C13.5176 15.8876 13.4473 15.8696 13.3747 15.8522L12.0831 21.0305C11.9852 21.2736 11.7371 21.6381 11.1779 21.4997C11.1976 21.5284 9.74226 21.1414 9.74226 21.1414L8.76172 23.4023L11.3321 24.0431C11.8102 24.1629 12.2788 24.2883 12.7401 24.4065L11.9227 27.6884L13.8956 28.1807L14.7052 24.9336C15.2441 25.0798 15.7673 25.2149 16.2792 25.342L15.4725 28.5739L17.4476 29.0661L18.265 25.7904C21.6331 26.4277 24.1657 26.1707 25.2318 23.1244C26.0908 20.6716 25.189 19.2568 23.417 18.3342C24.7075 18.0366 25.6796 17.1877 25.9389 15.4342ZM21.4261 21.7624C20.8157 24.2152 16.6859 22.8892 15.347 22.5568L16.4317 18.2087C17.7706 18.5429 22.064 19.2045 21.4261 21.7624ZM22.037 15.3988C21.4801 17.6299 18.0428 16.4963 16.9278 16.2184L17.9112 12.2749C19.0262 12.5528 22.617 13.0714 22.037 15.3988Z" fill="white"/>
</svg>
