<svg width="11" height="11" viewBox="0 0 11 11" fill="none" xmlns="http://www.w3.org/2000/svg">
<path d="M0.666136 7.31437L0.0162629 10.1191C-0.00615554 10.2216 -0.00538702 10.3279 0.0185123 10.43C0.0424115 10.5322 0.0888379 10.6278 0.1544 10.7098C0.219962 10.7917 0.303003 10.858 0.397457 10.9037C0.491911 10.9495 0.595392 10.9735 0.70034 10.9742C0.749242 10.9791 0.798516 10.9791 0.847417 10.9742L3.66924 10.3243L9.08713 4.92694L6.06351 1.91016L0.666136 7.31437Z" fill="white"/>
<path d="M10.7905 2.22414L8.7725 0.206108C8.63982 0.0741034 8.46028 0 8.27312 0C8.08596 0 7.90642 0.0741034 7.77374 0.206108L6.65186 1.32799L9.67206 4.3482L10.7939 3.22631C10.8596 3.16032 10.9116 3.08204 10.947 2.99593C10.9823 2.90983 11.0004 2.8176 11.0001 2.72451C10.9997 2.63143 10.9811 2.53932 10.9451 2.45346C10.9092 2.3676 10.8566 2.28967 10.7905 2.22414Z" fill="white"/>
</svg>
