<svg width="9" height="6" viewBox="0 0 9 6" fill="none" xmlns="http://www.w3.org/2000/svg">
<path d="M9 0.858078C7.34294 2.36699 5.68492 3.87546 4.02595 5.38349L3.42325 5.93135C3.32256 6.02288 3.26647 6.02288 3.16578 5.93135L0.0760573 3.12405C-0.0260704 3.03122 -0.024632 2.98284 0.0760573 2.89L0.765056 2.26238C0.867184 2.17085 0.921842 2.17085 1.02397 2.26238L3.219 4.2577C3.24201 4.27862 3.25927 4.30346 3.28373 4.33092C3.31825 4.30215 3.34126 4.28385 3.36284 4.26423L7.95571 0.08924C8.08517 -0.0297467 8.12401 -0.0297467 8.25634 0.08924C8.4721 0.285372 8.68786 0.481504 8.90219 0.677636C8.93671 0.709017 8.96836 0.744323 9 0.778319V0.858078Z" fill="white"/>
</svg>
