<svg width="13" height="10" viewBox="0 0 13 10" fill="none" xmlns="http://www.w3.org/2000/svg">
<path d="M5.18106 7.41149L1.18406 4.54149C1.08992 4.48585 1.0119 4.40664 0.957701 4.31166C0.903504 4.21668 0.875 4.10922 0.875 3.99986C0.875 3.89051 0.903504 3.78304 0.957701 3.68806C1.0119 3.59308 1.08992 3.51387 1.18406 3.45824L5.18106 0.586486C5.27634 0.530443 5.38475 0.500609 5.49529 0.500009C5.60583 0.49941 5.71456 0.528067 5.81044 0.583073C5.90632 0.638079 5.98595 0.717474 6.04122 0.813199C6.0965 0.908925 6.12547 1.01757 6.12519 1.12811V2.24899C7.43769 2.24899 11.3752 2.24899 12.2502 9.24899C10.0627 5.31149 6.12519 5.74899 6.12519 5.74899V6.86986C6.12519 7.35986 5.59494 7.65561 5.18106 7.41236V7.41149Z" fill="#EBEBF5"/>
</svg>
