<svg width="15" height="9" viewBox="0 0 15 9" fill="none" xmlns="http://www.w3.org/2000/svg">
<path d="M15 8.59499C14.8983 8.8098 14.7054 8.89286 14.4631 8.89358C13.8762 8.89573 13.2916 8.89358 12.7062 8.89358C12.4323 8.89358 12.2202 8.76827 12.0383 8.6C11.7879 8.368 11.5468 8.12778 11.3034 7.89005C10.8851 7.48227 10.4485 7.09274 9.9433 6.77482C9.69678 6.6198 9.44048 6.48161 9.12158 6.50022C8.90989 6.51275 8.81715 6.57791 8.79328 6.7716C8.77411 6.93571 8.76431 7.10062 8.76393 7.26567C8.7608 7.62368 8.76785 7.9817 8.76393 8.33757C8.76393 8.63545 8.65124 8.79333 8.32725 8.82949C7.93321 8.87389 7.52705 8.90539 7.13458 8.8678C5.62262 8.7228 4.40725 8.03648 3.36915 7.05837C2.67851 6.40714 2.14518 5.64671 1.63141 4.87697C1.00925 3.94612 0.474741 2.97553 0.136271 1.92367C0.0844405 1.76102 0.0432802 1.59568 0.013012 1.42853C-0.0492039 1.09378 0.112401 0.90654 0.482566 0.901528C1.07773 0.893293 1.67328 0.898663 2.26883 0.899021C2.53608 0.899021 2.72938 1.01466 2.83386 1.2352C2.95398 1.48832 3.05416 1.74967 3.16724 2.00602C3.5781 2.93973 4.06487 3.83728 4.7199 4.6507C4.8581 4.81809 5.00705 4.97781 5.16598 5.12901C5.2533 5.21303 5.35315 5.28535 5.46258 5.34382C5.71379 5.47915 5.89809 5.39323 5.94309 5.12901C5.947 5.10699 5.94896 5.08472 5.94895 5.06242C5.94895 4.23647 5.95834 3.41016 5.94895 2.58457C5.94311 2.23693 5.80361 1.90229 5.55492 1.6394C5.49064 1.57179 5.43179 1.49999 5.37884 1.42459C5.22428 1.19439 5.36749 0.931601 5.66174 0.89938C5.70543 0.895503 5.74933 0.893949 5.79322 0.894725C6.61311 0.894725 7.43301 0.894725 8.2529 0.894725C8.62228 0.894725 8.76158 1.01144 8.76158 1.35263C8.76745 2.31713 8.76471 3.28164 8.76667 4.24614C8.76558 4.33089 8.77239 4.41556 8.78702 4.49926C8.83789 4.76383 9.02453 4.85728 9.27066 4.71049C9.48327 4.58604 9.67706 4.43654 9.84704 4.26583C10.54 3.5591 11.0538 2.74425 11.5136 1.89861C11.6176 1.70707 11.7147 1.51231 11.8094 1.31647C11.9416 1.0433 12.1651 0.899738 12.4938 0.89938C13.065 0.89938 13.6362 0.89938 14.2072 0.89938C14.2803 0.899777 14.3529 0.909047 14.4232 0.926947C14.6298 0.979934 14.7421 1.11061 14.6827 1.2975C14.5987 1.58043 14.485 1.85524 14.343 2.11808C13.8202 3.0389 13.1719 3.88848 12.52 4.73483C12.2007 5.14978 12.2167 5.2647 12.6002 5.6331C13.1386 6.15044 13.6759 6.66885 14.1963 7.20086C14.5304 7.54277 14.8251 7.91511 15 8.35368V8.59499Z" fill="#808080"/>
</svg>
