<svg width="15" height="15" viewBox="0 0 15 15" fill="none" xmlns="http://www.w3.org/2000/svg">
<path d="M14.9994 3.42773C14.9518 3.63538 14.9148 3.84631 14.8529 4.05029C14.7017 4.56299 14.4201 4.99622 14.044 5.37195C12.7744 6.64148 11.5036 7.91174 10.2314 9.18274C9.23013 10.1785 7.85098 10.4209 6.59561 9.80237C6.30264 9.65845 6.0397 9.44238 5.78994 9.22742C5.52517 8.99927 5.52737 8.61475 5.75698 8.36096C5.81078 8.30015 5.87616 8.25067 5.9493 8.21542C6.02244 8.18017 6.10187 8.15985 6.18296 8.15566C6.26404 8.15146 6.34515 8.16348 6.42153 8.19099C6.49792 8.21851 6.56805 8.26098 6.62784 8.31592C6.92886 8.58582 7.25735 8.79199 7.66201 8.85681C8.24539 8.94983 8.76504 8.80884 9.21621 8.42542C9.26455 8.3844 9.31033 8.34009 9.35501 8.29541C10.6223 7.02832 11.8896 5.76123 13.1566 4.49414C13.8594 3.78992 13.9466 2.76929 13.3764 2.00391C12.7212 1.125 11.4428 0.988403 10.6342 1.73035C10.1563 2.1698 9.70987 2.64221 9.24991 3.10071C8.98477 3.36182 8.72439 3.62549 8.45889 3.8866C8.17911 4.16162 7.79971 4.17334 7.54336 3.91919C7.28702 3.66504 7.29727 3.28308 7.57522 3.00366C8.29226 2.28479 9.00821 1.56409 9.73587 0.854004C10.2226 0.37793 10.8162 0.112061 11.4911 0.0260009C11.5187 0.0199316 11.5457 0.0112247 11.5717 0H12.1576C12.1895 0.0108229 12.2221 0.0197497 12.255 0.0267335C13.5225 0.221924 14.3838 0.920288 14.8255 2.12329C14.9101 2.35291 14.9427 2.60193 14.9994 2.8418V3.42773Z" fill="#EBEBF5"/>
<path d="M0 11.5714C0.0461426 11.3682 0.0820319 11.1624 0.140259 10.9628C0.290772 10.4457 0.573854 10.0066 0.953248 9.62723C2.10657 8.4744 3.25989 7.32169 4.41321 6.1691C5.41516 5.17337 6.79578 4.93094 8.04895 5.5491C8.34192 5.69339 8.60486 5.90909 8.85461 6.12369C9.11975 6.3522 9.11755 6.73746 8.88794 6.99051C8.83426 7.051 8.76909 7.10021 8.69623 7.13529C8.62336 7.17036 8.54424 7.1906 8.46348 7.19483C8.38272 7.19905 8.30193 7.18718 8.22579 7.1599C8.14966 7.13262 8.07972 7.09048 8.02002 7.03592C7.719 6.76639 7.39087 6.55984 6.98584 6.49503C6.40247 6.40201 5.88318 6.54227 5.43201 6.92569C5.39099 6.96036 5.35156 6.99698 5.31372 7.03555C4.1499 8.19864 2.98669 9.36221 1.8241 10.5263C1.13782 11.2166 1.06055 12.2332 1.62524 12.9953C2.27564 13.8742 3.56616 14.0152 4.36597 13.2699C4.98852 12.6909 5.57446 12.0757 6.17505 11.4755C6.36182 11.2887 6.57568 11.2012 6.83862 11.2788C6.93466 11.3077 7.02232 11.3592 7.09414 11.4292C7.16597 11.4992 7.21983 11.5854 7.25115 11.6807C7.28247 11.7759 7.29031 11.8773 7.27403 11.9763C7.25774 12.0752 7.21779 12.1687 7.15759 12.2489C7.13728 12.2764 7.115 12.3023 7.09094 12.3266C6.49695 12.9206 5.90698 13.5179 5.3075 14.106C4.81895 14.5926 4.17946 14.8987 3.49402 14.9739C3.47109 14.9798 3.44896 14.9884 3.4281 14.9995H2.84216C2.79529 14.9889 2.74878 14.9765 2.70117 14.9684C1.48023 14.7633 0.63794 14.0858 0.192627 12.9316C0.0977787 12.6855 0.0629886 12.4163 0.000366569 12.1577L0 11.5714Z" fill="#EBEBF5"/>
</svg>
