<svg width="16" height="14" viewBox="0 0 16 14" fill="none" xmlns="http://www.w3.org/2000/svg">
<path d="M0 11.6399C1.76872 11.7888 3.3581 11.3675 4.80231 10.2741C3.28552 10.1342 2.28782 9.37104 1.72349 7.95995H3.15035L3.15824 7.90736C1.56045 7.40667 0.70002 6.32955 0.572217 4.61553C1.05608 4.84747 1.51312 5.00788 2.05378 5.01366C1.21701 4.34047 0.698442 3.52632 0.614818 2.47866C0.562224 1.82071 0.737887 1.21063 1.06712 0.612638C2.8553 2.7006 5.0879 3.87817 7.79909 4.04962C7.79909 3.68147 7.77595 3.34066 7.80277 3.00459C7.93847 1.29267 9.40793 -0.0279509 11.1309 0.000449552C11.9806 0.00481632 12.7948 0.342037 13.3987 0.93977C13.4298 0.976208 13.471 1.00257 13.517 1.0155C13.5631 1.02843 13.612 1.02733 13.6575 1.01235C14.27 0.867161 14.8611 0.642803 15.4157 0.344936C15.4583 0.321269 15.5046 0.304965 15.5924 0.266046C15.3589 0.994518 14.8782 1.61849 14.2334 2.03003L14.2644 2.09578L16 1.61297C15.9548 1.68081 15.9095 1.75339 15.8596 1.82334C15.4867 2.34058 15.0378 2.79842 14.5279 3.18131C14.4775 3.21437 14.4373 3.2608 14.4117 3.31541C14.3862 3.37003 14.3763 3.43067 14.3833 3.49056C14.5037 7.17894 12.3121 10.8179 8.9856 12.2779C5.98777 13.5927 3.02728 13.4171 0.171455 11.784C0.118861 11.7551 0.0704751 11.7225 0.0215631 11.6899C0.0131482 11.6841 0.0115706 11.6673 0 11.6399Z" fill="#EBEBF5"/>
</svg>
