<svg width="9" height="12" viewBox="0 0 9 12" fill="none" xmlns="http://www.w3.org/2000/svg">
<path d="M8.46786 9.08508C7.53747 9.07332 6.63544 8.72483 5.89656 8.09166C5.15769 7.4585 4.62161 6.57466 4.36844 5.5722C4.11527 4.56973 4.15859 3.50246 4.49193 2.52984C4.82527 1.55722 5.43073 0.731459 6.21786 0.175943C5.82013 0.0601832 5.41095 0.00106853 5 0C3.67392 0 2.40215 0.589809 1.46447 1.63967C0.526784 2.68954 0 4.11347 0 5.5982C0 7.08294 0.526784 8.50686 1.46447 9.55673C2.40215 10.6066 3.67392 11.1964 5 11.1964C5.75123 11.1956 6.49239 11.0029 7.16701 10.6329C7.84163 10.2628 8.4319 9.72523 8.89286 9.06109C8.75165 9.07715 8.6098 9.08516 8.46786 9.08508Z" fill="white"/>
</svg>
