<svg width="30" height="31" viewBox="0 0 30 31" fill="none" xmlns="http://www.w3.org/2000/svg">
<g clip-path="url(#clip0_193_12305)">
<path d="M9.17376 13.0065L14.9998 7.18066L20.8288 13.0095L24.2188 9.61951L14.9998 0.400208L5.78391 9.61651L9.17376 13.0065ZM0 15.3997L3.39011 12.0096L6.77998 15.3995L3.38991 18.7896L0 15.3997ZM9.17376 17.7939L14.9998 23.6198L20.8286 17.7911L24.2204 21.1793L24.2188 21.1811L14.9998 30.4002L5.78361 21.1842L5.77881 21.1794L9.17376 17.7939ZM23.2201 15.4016L26.6102 12.0115L30.0001 15.4014L26.61 18.7915L23.2201 15.4016Z" fill="#F3BA2F"/>
<path d="M18.4377 15.3988H18.4392L14.9992 11.9588L12.457 14.501H12.4569L12.1648 14.7932L11.5624 15.3958L11.5576 15.4004L11.5624 15.4054L14.9992 18.8423L18.4392 15.4024L18.4408 15.4004L18.4377 15.3988Z" fill="#F3BA2F"/>
</g>
<defs>
<clipPath id="clip0_193_12305">
<rect width="30" height="30" fill="white" transform="translate(0 0.400208)"/>
</clipPath>
</defs>
</svg>
