<svg width="22" height="22" viewBox="0 0 22 22" fill="none" xmlns="http://www.w3.org/2000/svg">
<circle cx="11" cy="11" r="10.5" stroke="#6D6969"/>
<path d="M16 8.85808C14.3429 10.367 12.6849 11.8755 11.0259 13.3835L10.4233 13.9314C10.3226 14.0229 10.2665 14.0229 10.1658 13.9314L7.07606 11.1241C6.97393 11.0312 6.97537 10.9828 7.07606 10.89L7.76506 10.2624C7.86718 10.1709 7.92184 10.1709 8.02397 10.2624L10.219 12.2577C10.242 12.2786 10.2593 12.3035 10.2837 12.3309C10.3183 12.3022 10.3413 12.2838 10.3628 12.2642L14.9557 8.08924C15.0852 7.97025 15.124 7.97025 15.2563 8.08924C15.4721 8.28537 15.6879 8.4815 15.9022 8.67764C15.9367 8.70902 15.9684 8.74432 16 8.77832V8.85808Z" fill="#32D74B"/>
</svg>
