<svg width="14" height="13" viewBox="0 0 14 13" fill="none" xmlns="http://www.w3.org/2000/svg">
<path d="M0 6.5C0 6.5 2.625 2 7 2C11.375 2 14 6.5 14 6.5C14 6.5 11.375 11 7 11C2.625 11 0 6.5 0 6.5ZM7 9.36364C7.81223 9.36364 8.59118 9.06193 9.16551 8.5249C9.73984 7.98786 10.0625 7.25948 10.0625 6.5C10.0625 5.74052 9.73984 5.01214 9.16551 4.4751C8.59118 3.93807 7.81223 3.63636 7 3.63636C6.18777 3.63636 5.40882 3.93807 4.83449 4.4751C4.26016 5.01214 3.9375 5.74052 3.9375 6.5C3.9375 7.25948 4.26016 7.98786 4.83449 8.5249C5.40882 9.06193 6.18777 9.36364 7 9.36364Z" fill="#6D6969"/>
<line x1="1.70711" y1="1" x2="12.3137" y2="11.6066" stroke="#6D6969" stroke-linecap="round"/>
</svg>
