<svg width="18" height="16" viewBox="0 0 18 16" fill="none" xmlns="http://www.w3.org/2000/svg">
<path d="M0 15.328L0.224022 15.2572C0.635523 15.1318 0.996391 14.8787 1.25427 14.5344C1.51214 14.1901 1.65361 13.7726 1.65815 13.3424C1.66581 9.93552 1.67921 6.52859 1.64921 3.12167C1.64219 2.33152 1.73474 1.60967 2.24788 0.99441C2.86889 0.250222 3.67435 -0.0720894 4.64001 0.0134349C4.73511 0.021732 4.83148 0.0268374 4.92594 0.0268374C8.19075 0.0268374 11.4551 0.0279023 14.7191 0.0300297C15.1295 0.0300297 15.5546 0.00194715 15.949 0.0938538C17.2733 0.395103 18.1356 1.66456 17.9824 3.01444C17.9725 3.10942 17.9681 3.20489 17.969 3.30037C17.9677 6.22564 17.9671 9.15304 17.9671 12.0826C17.9671 12.5025 17.9926 12.9359 17.9033 13.3386C17.6339 14.5302 16.5496 15.3669 15.3299 15.3682C10.2265 15.3708 5.12316 15.3708 0.0197854 15.3682L0 15.328ZM7.25169 11.773C7.81717 11.773 8.38265 11.773 8.94749 11.773C9.47276 11.773 9.82699 11.4124 9.82444 10.8846C9.82061 10.111 9.82061 9.33728 9.82444 8.5633C9.82444 8.03867 9.46064 7.67679 8.94111 7.67934C7.82674 7.68445 6.71238 7.68445 5.59801 7.67934C5.07018 7.67615 4.71277 8.02399 4.71404 8.55628C4.7166 9.33834 4.7166 10.1202 4.71404 10.9018C4.71404 11.4213 5.06125 11.7737 5.57886 11.7724C6.13626 11.7728 6.69387 11.773 7.25169 11.773ZM10.1972 4.87491H10.5552C11.9874 4.87491 13.4196 4.87491 14.8519 4.87491C15.3573 4.87491 15.6956 4.53026 15.6694 4.05541C15.6465 3.63609 15.3101 3.34377 14.8397 3.34377C12.294 3.34377 9.74785 3.34377 7.20127 3.34377C6.63643 3.34377 6.07158 3.34377 5.50674 3.34377C5.16081 3.34377 4.90935 3.50653 4.77595 3.82373C4.5615 4.33432 4.93998 4.87236 5.51823 4.87364C7.07809 4.88002 8.63731 4.87619 10.1972 4.87619V4.87491ZM13.8805 8.95965H14.9036C15.3376 8.9437 15.6528 8.64436 15.6694 8.23397C15.6854 7.80763 15.3905 7.45149 14.9533 7.43809C14.2468 7.41575 13.5384 7.41575 12.8318 7.43809C12.3914 7.45213 12.1004 7.8038 12.1151 8.23333C12.1291 8.64245 12.4457 8.9488 12.881 8.95901C13.2129 8.96476 13.5467 8.95774 13.8824 8.95837L13.8805 8.95965ZM13.8932 12.0232C14.227 12.0232 14.5608 12.0283 14.8946 12.0232C15.3414 12.0143 15.6605 11.7041 15.6707 11.286C15.6763 11.184 15.6609 11.0819 15.6256 10.9861C15.5902 10.8902 15.5356 10.8026 15.4651 10.7287C15.3946 10.6547 15.3097 10.5959 15.2157 10.556C15.1216 10.5161 15.0204 10.4959 14.9182 10.4965C14.2349 10.4812 13.5513 10.4812 12.8676 10.4965C12.7654 10.4952 12.6641 10.515 12.5699 10.5545C12.4757 10.5941 12.3907 10.6527 12.3201 10.7266C12.2496 10.8005 12.195 10.8881 12.1599 10.9841C12.1247 11.08 12.1097 11.1821 12.1157 11.2841C12.1247 11.7041 12.4444 12.0124 12.8912 12.0213C13.225 12.0283 13.5588 12.0226 13.8932 12.0226V12.0232Z" fill="#2B2B2E"/>
</svg>
