<svg width="14" height="15" viewBox="0 0 14 15" fill="none" xmlns="http://www.w3.org/2000/svg">
<path d="M0.256375 5.88578L6.38138 0.236299C6.54546 0.0849966 6.76798 0 7 0C7.23202 0 7.45454 0.0849966 7.61862 0.236299L13.7436 5.88578C13.9077 6.0371 14 6.24234 14 6.45637V14.1929C14 14.407 13.9078 14.6123 13.7437 14.7636C13.5796 14.915 13.3571 15 13.125 15H8.75V9.35052H5.25V15H0.875C0.642936 15 0.420376 14.915 0.256282 14.7636C0.0921874 14.6123 0 14.407 0 14.1929V6.45637C4.95577e-05 6.24234 0.0922695 6.0371 0.256375 5.88578Z" fill="white"/>
</svg>
