<svg width="16" height="14" viewBox="0 0 16 14" fill="none" xmlns="http://www.w3.org/2000/svg">
<path d="M16 0.63216V1.03758C15.9838 1.09633 15.965 1.15466 15.9521 1.21424C15.1743 4.85313 14.3965 8.493 13.6188 12.1338C13.5654 12.3813 13.5083 12.6338 13.4104 12.8651C13.2438 13.2597 12.9212 13.3926 12.515 13.2551C12.3724 13.207 12.2376 13.1382 12.115 13.0509C10.9779 12.2259 9.84583 11.3947 8.71083 10.5672C8.49458 10.4097 8.56417 10.4038 8.36375 10.5938C7.79347 11.1338 7.22472 11.6755 6.6575 12.2188C6.48208 12.3855 6.2825 12.4888 6.0175 12.4767C6.03333 12.2451 6.0475 12.0234 6.06333 11.8017C6.1325 10.8326 6.20042 9.863 6.27583 8.89425C6.28445 8.815 6.32057 8.74128 6.37792 8.68591C8.52931 6.75175 10.6821 4.8198 12.8363 2.89008C12.9408 2.79633 13.0479 2.70424 13.1429 2.60174C13.161 2.58153 13.1742 2.55739 13.1815 2.53122C13.1887 2.50505 13.1898 2.47756 13.1846 2.45091C13.1697 2.42857 13.1493 2.41044 13.1253 2.39825C13.1014 2.38607 13.0748 2.38024 13.0479 2.38133C12.9 2.41925 12.7421 2.45341 12.6146 2.53174C11.6562 3.11966 10.7067 3.71799 9.75375 4.31299C7.94569 5.44355 6.13639 6.57286 4.32583 7.70091C4.27125 7.73508 4.18708 7.76383 4.13167 7.74716C2.92389 7.37772 1.71736 7.00397 0.512083 6.62591C0.298333 6.55925 0.1175 6.44466 0 6.24674V6.05966C0.065 5.97341 0.113333 5.86091 0.19875 5.80591C0.400223 5.66978 0.614922 5.55433 0.839583 5.46133C4.23292 4.15855 7.62806 2.85952 11.025 1.56424L14.9104 0.0784111C15.4138 -0.113672 15.8813 0.0409117 15.9846 0.605078C15.9883 0.614823 15.9935 0.62395 16 0.63216Z" fill="#EBEBF5"/>
</svg>
