<svg width="16" height="14" viewBox="0 0 16 14" fill="none" xmlns="http://www.w3.org/2000/svg">
<path d="M0 11.6398C1.76872 11.7886 3.3581 11.3674 4.80231 10.2739C3.28552 10.134 2.28782 9.37092 1.72349 7.95983H3.15035L3.15824 7.90724C1.56045 7.40655 0.70002 6.32943 0.572217 4.61541C1.05608 4.84735 1.51312 5.00776 2.05378 5.01354C1.21701 4.34034 0.698442 3.5262 0.614818 2.47853C0.562224 1.82059 0.737887 1.2105 1.06712 0.612516C2.8553 2.70048 5.0879 3.87805 7.79909 4.0495C7.79909 3.68135 7.77595 3.34054 7.80277 3.00447C7.93847 1.29255 9.40793 -0.028073 11.1309 0.000327482C11.9806 0.00469425 12.7948 0.341915 13.3987 0.939648C13.4298 0.976086 13.471 1.00245 13.517 1.01538C13.5631 1.0283 13.612 1.02721 13.6575 1.01223C14.27 0.867039 14.8611 0.642681 15.4157 0.344814C15.4583 0.321147 15.5046 0.304843 15.5924 0.265924C15.3589 0.994396 14.8782 1.61837 14.2334 2.02991L14.2644 2.09565L16 1.61284C15.9548 1.68069 15.9095 1.75327 15.8596 1.82322C15.4867 2.34046 15.0378 2.7983 14.5279 3.18118C14.4775 3.21424 14.4373 3.26068 14.4117 3.31529C14.3862 3.3699 14.3763 3.43054 14.3833 3.49043C14.5037 7.17882 12.3121 10.8178 8.9856 12.2778C5.98777 13.5926 3.02728 13.4169 0.171455 11.7839C0.118861 11.755 0.0704751 11.7224 0.0215631 11.6898C0.0131482 11.684 0.0115706 11.6671 0 11.6398Z" fill="#EBEBF5"/>
</svg>
