<svg width="22" height="23" viewBox="0 0 22 23" fill="none" xmlns="http://www.w3.org/2000/svg">
<path d="M21.6684 14.1611C20.1993 20.054 14.2307 23.6403 8.33713 22.1708C2.44594 20.7016 -1.1404 14.7327 0.329471 8.84015C1.79797 2.94655 7.7665 -0.640136 13.6584 0.829051C19.5516 2.29824 23.1376 8.2678 21.6684 14.1611Z" fill="#F7931A"/>
<path d="M15.8486 9.93292C16.0676 8.46923 14.9531 7.68239 13.4293 7.15748L13.9236 5.17473L12.7167 4.87395L12.2354 6.80445C11.9182 6.72539 11.5923 6.65079 11.2685 6.57689L11.7532 4.63367L10.5469 4.33289L10.0523 6.31495C9.78966 6.25514 9.53185 6.19601 9.2816 6.13379L9.28298 6.1276L7.61854 5.71201L7.29748 7.00107C7.29748 7.00107 8.19295 7.20629 8.17404 7.21901C8.66285 7.34104 8.7512 7.66451 8.73641 7.92095L8.17335 10.1797C8.20704 10.1883 8.25069 10.2007 8.29882 10.2199C8.2586 10.21 8.21563 10.199 8.17129 10.1883L7.38204 13.3525C7.32223 13.501 7.17063 13.7238 6.82895 13.6392C6.84098 13.6568 5.9517 13.4203 5.9517 13.4203L5.35254 14.8018L6.92313 15.1933C7.21532 15.2665 7.50166 15.3432 7.78354 15.4154L7.28407 17.4208L8.4896 17.7216L8.98426 15.7375C9.31357 15.8269 9.63326 15.9094 9.94607 15.987L9.45313 17.9619L10.66 18.2627L11.1595 16.261C13.2175 16.6505 14.7651 16.4934 15.4165 14.632C15.9414 13.1332 15.3904 12.2687 14.3076 11.7049C15.0961 11.5231 15.6901 11.0044 15.8486 9.93292ZM13.091 13.7998C12.7181 15.2985 10.1946 14.4883 9.37648 14.2851L10.0392 11.6283C10.8574 11.8325 13.4809 12.2367 13.091 13.7998ZM13.4644 9.91126C13.124 11.2746 11.0237 10.5819 10.3424 10.4121L10.9433 8.00242C11.6246 8.17223 13.8188 8.48917 13.4644 9.91126Z" fill="white"/>
</svg>
