<svg width="22" height="23" viewBox="0 0 22 23" fill="none" xmlns="http://www.w3.org/2000/svg">
<path d="M11 0.5C17.0749 0.5 22 5.42514 22 11.5C22 17.5749 17.0746 22.5 11 22.5C4.92536 22.5 0 17.5762 0 11.5C0 5.42382 4.92448 0.5 11 0.5Z" fill="#53AE94"/>
<path d="M12.3577 10.0344V8.39805H16.0997V5.90479H5.9102V8.39805H9.65262V10.0331C6.61112 10.1728 4.32422 10.7751 4.32422 11.4967C4.32422 12.2183 6.61222 12.8207 9.65262 12.9613V18.2028H12.3586V12.9608C15.3946 12.8207 17.6769 12.2188 17.6769 11.4978C17.6769 10.7769 15.3946 10.175 12.3586 10.0348M12.3586 12.5169V12.5156C12.2823 12.5204 11.89 12.5439 11.0166 12.5439C10.3183 12.5439 9.82708 12.5241 9.65394 12.5151V12.5173C6.96686 12.3983 4.96112 11.9304 4.96112 11.3705C4.96112 10.8106 6.96708 10.3433 9.65394 10.224V12.0511C9.82994 12.0632 10.3333 12.0929 11.0281 12.0929C11.8625 12.0929 12.2821 12.0582 12.3591 12.0511V10.224C15.0409 10.3435 17.042 10.8119 17.042 11.3698C17.042 11.9277 15.04 12.3963 12.3591 12.5158" fill="white"/>
</svg>
