<svg width="22" height="23" viewBox="0 0 22 23" fill="none" xmlns="http://www.w3.org/2000/svg">
<circle cx="11" cy="11.5" r="11" fill="white"/>
<path d="M15.461 14.2974V14.2983L11.0001 18.7582L6.54104 14.2992L6.53833 14.2974L8.18105 12.6592L11.0001 15.4782L13.8201 12.6573L15.461 14.2974Z" fill="black"/>
<path d="M15.461 8.70351L13.82 10.3444L11.0001 7.52356L8.18103 10.3426L6.54102 8.7026L11.0001 4.24353L15.461 8.70351Z" fill="black"/>
<path d="M16.6174 9.86195L14.9768 11.5026L16.6168 13.1425L18.2574 11.5019L16.6174 9.86195Z" fill="black"/>
<path d="M5.38256 9.86012L3.74194 11.5007L5.38192 13.1407L7.02253 11.5001L5.38256 9.86012Z" fill="black"/>
<path d="M12.6636 11.5001L11.0002 9.83569L9.7697 11.0662L9.62807 11.2078L9.33669 11.4992L9.33398 11.501L9.33669 11.5037L10.9993 13.1662L12.6636 11.5019L12.6645 11.501L12.6636 11.5001Z" fill="black"/>
<path d="M11 21C9.71812 21 8.47412 20.7492 7.3023 20.2531C6.17107 19.7749 5.1553 19.0894 4.28297 18.217C3.41064 17.3447 2.72595 16.3289 2.24694 15.1977C1.75168 14.0268 1.5 12.7828 1.5 11.5C1.5 10.2181 1.75078 8.97412 2.24694 7.8023C2.72505 6.67107 3.41064 5.6553 4.28297 4.78297C5.1553 3.91064 6.17107 3.22595 7.3023 2.74694C8.47322 2.25168 9.71722 2 11 2C12.2819 2 13.5259 2.25078 14.6977 2.74694C15.8289 3.22505 16.8447 3.91064 17.717 4.78297C18.5894 5.6553 19.274 6.67107 19.7531 7.8023C20.2483 8.97322 20.5 10.2172 20.5 11.5C20.5 12.7819 20.2492 14.0259 19.7531 15.1977C19.275 16.3289 18.5894 17.3447 17.717 18.217C16.8447 19.0894 15.8289 19.774 14.6977 20.2531C13.5259 20.7492 12.2819 21 11 21ZM11 2.54306C6.06101 2.54306 2.04216 6.56191 2.04216 11.5009C2.04216 16.4399 6.06101 20.4587 11 20.4587C15.939 20.4587 19.9578 16.4399 19.9578 11.5009C19.9578 6.56191 15.939 2.54306 11 2.54306Z" fill="black"/>
</svg>
