<svg width="17" height="17" viewBox="0 0 17 17" fill="none" xmlns="http://www.w3.org/2000/svg">
<path d="M5.66016 16.0351C5.66016 12.5395 5.66016 9.04387 5.66016 5.54807V5.33931H8.84295V6.82278C8.87294 6.79167 8.90084 6.75862 8.92646 6.72382C9.48928 5.78898 10.3381 5.27918 11.3919 5.11593C12.1932 4.98679 13.0141 5.06263 13.7781 5.33639C14.7964 5.70256 15.3852 6.4637 15.6908 7.47286C15.9146 8.21355 15.9906 8.97596 15.9943 9.7442C16.0048 11.8414 16.0002 13.9391 16.0014 16.0363H12.6888C12.6888 14.1737 12.6913 12.3116 12.6813 10.449C12.6772 10.0992 12.6466 9.7503 12.5898 9.40517C12.4554 8.55467 11.9957 8.07911 11.1945 8.00437C10.1039 7.90333 9.32018 8.33839 9.09472 9.48742C9.01676 9.91273 8.97832 10.3443 8.9799 10.7767C8.96654 12.5303 8.97322 14.284 8.97238 16.0351H5.66016Z" fill="#EBEBF5"/>
<path d="M0.251953 16.0325C0.256128 15.9599 0.26406 15.8876 0.26406 15.815C0.26406 12.3966 0.26406 8.97843 0.26406 5.56057V5.33594H3.58548V5.5447C3.58548 8.96841 3.58548 12.3921 3.58548 15.8158C3.58548 15.8885 3.59174 15.9611 3.59508 16.0338L0.251953 16.0325Z" fill="#EBEBF5"/>
<path d="M2.15819 0C2.30265 0.0417525 2.45046 0.0718144 2.59074 0.125258C3.47214 0.451762 3.97985 1.35612 3.81117 2.29138C3.65 3.18614 2.84836 3.86044 1.93231 3.87046C1.02586 3.88048 0.21085 3.20451 0.0338194 2.29722C0.0250514 2.25171 0.0112732 2.20746 0 2.16236V1.69098C0.0100206 1.65632 0.0229623 1.6225 0.0296427 1.58701C0.11776 1.09977 0.389637 0.664977 0.789121 0.372432C1.05717 0.169515 1.36739 0.0730669 1.68764 0H2.15819Z" fill="#EBEBF5"/>
</svg>
