<svg width="14" height="14" viewBox="0 0 14 14" fill="none" xmlns="http://www.w3.org/2000/svg">
<path fill-rule="evenodd" clip-rule="evenodd" d="M7.00142 0C6.47424 0 6.04688 0.427365 6.04688 0.954546V6.04545H0.954546C0.427365 6.04545 0 6.47282 0 7C0 7.52718 0.427365 7.95455 0.954546 7.95455H6.04688V13.0455C6.04688 13.5726 6.47424 14 7.00142 14C7.5286 14 7.95597 13.5726 7.95597 13.0455V7.95455H13.0455C13.5726 7.95455 14 7.52718 14 7C14 6.47282 13.5726 6.04545 13.0455 6.04545H7.95597V0.954546C7.95597 0.427365 7.5286 0 7.00142 0Z" fill="#4D4D4D" style="mix-blend-mode:color-burn"/>
<path fill-rule="evenodd" clip-rule="evenodd" d="M7.00142 0C6.47424 0 6.04688 0.427365 6.04688 0.954546V6.04545H0.954546C0.427365 6.04545 0 6.47282 0 7C0 7.52718 0.427365 7.95455 0.954546 7.95455H6.04688V13.0455C6.04688 13.5726 6.47424 14 7.00142 14C7.5286 14 7.95597 13.5726 7.95597 13.0455V7.95455H13.0455C13.5726 7.95455 14 7.52718 14 7C14 6.47282 13.5726 6.04545 13.0455 6.04545H7.95597V0.954546C7.95597 0.427365 7.5286 0 7.00142 0Z" fill="#D5FB50"/>
</svg>
