<svg width="11" height="11" viewBox="0 0 11 11" fill="none" xmlns="http://www.w3.org/2000/svg">
<path d="M5.4945 0C2.4585 0 0 2.464 0 5.5C0 8.536 2.4585 11 5.4945 11C8.536 11 11 8.536 11 5.5C11 2.464 8.536 0 5.4945 0ZM9.306 3.3H7.6835C7.51136 2.6188 7.25647 1.96124 6.9245 1.342C7.92776 1.6874 8.77314 2.38245 9.306 3.3ZM5.5 1.122C5.9565 1.782 6.314 2.5135 6.5505 3.3H4.4495C4.686 2.5135 5.0435 1.782 5.5 1.122ZM1.243 6.6C1.155 6.248 1.1 5.8795 1.1 5.5C1.1 5.1205 1.155 4.752 1.243 4.4H3.102C3.058 4.763 3.025 5.126 3.025 5.5C3.025 5.874 3.058 6.237 3.102 6.6H1.243ZM1.694 7.7H3.3165C3.4925 8.3875 3.7455 9.0475 4.0755 9.658C3.07118 9.31449 2.22521 8.61895 1.694 7.7ZM3.3165 3.3H1.694C2.22521 2.38105 3.07118 1.68551 4.0755 1.342C3.74353 1.96124 3.48864 2.6188 3.3165 3.3ZM5.5 9.878C5.0435 9.218 4.686 8.4865 4.4495 7.7H6.5505C6.314 8.4865 5.9565 9.218 5.5 9.878ZM6.787 6.6H4.213C4.1635 6.237 4.125 5.874 4.125 5.5C4.125 5.126 4.1635 4.7575 4.213 4.4H6.787C6.8365 4.7575 6.875 5.126 6.875 5.5C6.875 5.874 6.8365 6.237 6.787 6.6ZM6.9245 9.658C7.2545 9.0475 7.5075 8.3875 7.6835 7.7H9.306C8.77314 8.61755 7.92776 9.3126 6.9245 9.658ZM7.898 6.6C7.942 6.237 7.975 5.874 7.975 5.5C7.975 5.126 7.942 4.763 7.898 4.4H9.757C9.845 4.752 9.9 5.1205 9.9 5.5C9.9 5.8795 9.845 6.248 9.757 6.6H7.898Z" fill="white"/>
</svg>
