<svg width="14" height="12" viewBox="0 0 14 12" fill="none" xmlns="http://www.w3.org/2000/svg">
<path d="M0 10.6309C1.54763 10.7554 2.93833 10.403 4.20202 9.48838C2.87483 9.37136 2.00184 8.73303 1.50805 7.55272H2.75656L2.76346 7.50872C1.36539 7.08992 0.612517 6.18895 0.50069 4.75524C0.924068 4.94925 1.32398 5.08342 1.79705 5.08826C1.06489 4.52516 0.611136 3.84416 0.537966 2.96783C0.491946 2.41748 0.645651 1.90717 0.933732 1.40698C2.49839 3.15348 4.45191 4.13847 6.82421 4.28188C6.82421 3.97393 6.80396 3.68886 6.82743 3.40775C6.94616 1.9758 8.23194 0.871151 9.73953 0.894907C10.483 0.89856 11.1954 1.18063 11.7239 1.68061C11.751 1.71109 11.7871 1.73314 11.8274 1.74396C11.8677 1.75477 11.9105 1.75385 11.9503 1.74132C12.4863 1.61988 13.0034 1.43221 13.4887 1.18306C13.526 1.16326 13.5665 1.14962 13.6433 1.11707C13.4391 1.72641 13.0184 2.24833 12.4542 2.59257L12.4814 2.64756L14 2.24371C13.9604 2.30046 13.9208 2.36117 13.8771 2.41968C13.5509 2.85234 13.158 3.2353 12.7119 3.55557C12.6678 3.58322 12.6326 3.62206 12.6103 3.66774C12.5879 3.71342 12.5793 3.76415 12.5854 3.81424C12.6908 6.89943 10.7731 9.94326 7.8624 11.1645C5.2393 12.2643 2.64887 12.1174 0.150023 10.7514C0.104003 10.7272 0.0616657 10.6999 0.0188677 10.6727C0.0115046 10.6678 0.0101243 10.6537 0 10.6309Z" fill="#808080"/>
</svg>
