<svg width="18" height="18" viewBox="0 0 18 18" fill="none" xmlns="http://www.w3.org/2000/svg">
<path d="M13.3125 15.75H9.5625V9.5625H15.75V13.3125C15.75 13.959 15.4932 14.579 15.0361 15.0361C14.579 15.4932 13.959 15.75 13.3125 15.75ZM15.75 8.4375H9.5625V2.25H13.3125C13.959 2.25 14.579 2.50681 15.0361 2.96393C15.4932 3.42105 15.75 4.04103 15.75 4.6875V8.4375ZM8.4375 8.4375V2.25H4.6875C4.04103 2.25 3.42105 2.50681 2.96393 2.96393C2.50681 3.42105 2.25 4.04103 2.25 4.6875V8.4375H8.4375ZM2.25 9.5625V13.3125C2.25 13.959 2.50681 14.579 2.96393 15.0361C3.42105 15.4932 4.04103 15.75 4.6875 15.75H8.4375V9.5625H2.25Z" fill="#2B2B2E"/>
</svg>
