<svg width="15" height="14" viewBox="0 0 15 14" fill="none" xmlns="http://www.w3.org/2000/svg">
<path d="M5.20679 13.948C5.20679 10.9071 5.20679 7.86603 5.20679 4.82485V4.64324H7.97567V5.93378C8.00176 5.90673 8.02603 5.87797 8.04831 5.8477C8.53794 5.03443 9.27638 4.59093 10.1932 4.44891C10.8902 4.33656 11.6044 4.40254 12.269 4.64069C13.1549 4.95925 13.6671 5.62141 13.933 6.49933C14.1276 7.14369 14.1938 7.80695 14.197 8.47528C14.2061 10.2998 14.2021 12.1246 14.2032 13.9491H11.3213C11.3213 12.3288 11.3235 10.7088 11.3148 9.08841C11.3113 8.78415 11.2847 8.48059 11.2353 8.18034C11.1183 7.44045 10.7184 7.02673 10.0214 6.96171C9.07261 6.87381 8.39084 7.2523 8.19469 8.2519C8.12687 8.6219 8.09343 8.99738 8.09481 9.37354C8.08318 10.8991 8.08899 12.4247 8.08827 13.948H5.20679Z" fill="#808080"/>
<path d="M0.501892 13.9471C0.505524 13.8839 0.512425 13.8211 0.512425 13.7579C0.512425 10.784 0.512425 7.81039 0.512425 4.83702V4.6416H3.4019V4.82322C3.4019 7.80168 3.4019 10.7801 3.4019 13.7586C3.4019 13.8218 3.40735 13.885 3.41025 13.9482L0.501892 13.9471Z" fill="#808080"/>
<path d="M2.16024 0C2.28591 0.0363227 2.41449 0.062475 2.53654 0.108968C3.30331 0.393012 3.74499 1.17976 3.59825 1.99339C3.45804 2.77179 2.76065 3.3584 1.96373 3.36711C1.17516 3.37583 0.466144 2.78777 0.312136 1.99848C0.304508 1.95888 0.292522 1.92038 0.282715 1.88115V1.47107C0.291432 1.44092 0.302691 1.4115 0.308503 1.38063C0.385161 0.956748 0.62168 0.578498 0.969213 0.323998C1.2024 0.14747 1.47228 0.0635647 1.75088 0H2.16024Z" fill="#808080"/>
</svg>
