<svg width="7" height="15" viewBox="0 0 7 15" fill="none" xmlns="http://www.w3.org/2000/svg">
<path d="M2.01894 14.8945C2.0215 14.8536 2.02626 14.813 2.02626 14.7721C2.02626 12.7708 2.02626 10.7692 2.02626 8.76716V8.63337H0V6.14068H2.02662C2.02662 6.07488 2.02662 6.02187 2.02662 5.96923C2.03248 5.23996 2.01344 4.50922 2.05152 3.78141C2.09692 2.91505 2.39277 2.14228 3.07673 1.56325C3.6146 1.10813 4.25573 0.901598 4.94701 0.895018C5.60315 0.888803 6.26002 0.943636 6.91652 0.972515C6.94486 0.976529 6.97279 0.983012 7 0.991889V3.21042C6.94471 3.21042 6.89016 3.21042 6.8389 3.21042C6.35961 3.21773 5.87922 3.20421 5.40213 3.2393C4.88953 3.27585 4.58782 3.54782 4.55707 4.06033C4.51679 4.74537 4.54718 5.43443 4.54718 6.13702H6.79276C6.68841 6.97413 6.58589 7.79516 6.48227 8.62643H4.53803C4.53437 8.68089 4.52887 8.72439 4.52887 8.76789C4.52887 10.7697 4.52887 12.7713 4.52887 14.7728C4.52887 14.8134 4.53656 14.8536 4.54022 14.8942L2.01894 14.8945Z" fill="#808080"/>
</svg>
