<svg width="17" height="10" viewBox="0 0 17 10" fill="none" xmlns="http://www.w3.org/2000/svg">
<path d="M17 9.53834C16.8847 9.80442 16.6661 9.90731 16.3916 9.90819C15.7264 9.91086 15.0638 9.90819 14.4004 9.90819C14.09 9.90819 13.8496 9.75298 13.6434 9.54455C13.3596 9.25718 13.0864 8.95962 12.8106 8.66515C12.3365 8.16004 11.8416 7.67755 11.2691 7.28375C10.9897 7.09173 10.6992 6.92055 10.3378 6.94361C10.0979 6.95913 9.99277 7.03984 9.96572 7.27976C9.94399 7.48304 9.93289 7.68731 9.93246 7.89175C9.92891 8.33521 9.93689 8.77868 9.93246 9.21949C9.93246 9.58845 9.80474 9.78402 9.43754 9.82881C8.99097 9.8838 8.53065 9.92283 8.08586 9.87626C6.3723 9.69666 4.99489 8.84653 3.81837 7.63498C3.03565 6.82831 2.4312 5.88639 1.84893 4.93293C1.14381 3.77992 0.53804 2.57767 0.15444 1.27477C0.0956992 1.07329 0.0490509 0.86849 0.0147469 0.661451C-0.0557644 0.246808 0.127388 0.0148749 0.546908 0.00866638C1.22142 -0.00153338 1.89638 0.00511831 2.57134 0.00556178C2.87423 0.00556178 3.0933 0.148802 3.2117 0.421979C3.34785 0.73551 3.46138 1.05924 3.58954 1.37676C4.05518 2.53333 4.60685 3.6451 5.34922 4.65266C5.50584 4.86 5.67466 5.05784 5.85477 5.24513C5.95374 5.34921 6.0669 5.43879 6.19092 5.51121C6.47563 5.67884 6.6845 5.57241 6.7355 5.24513C6.73993 5.21786 6.74216 5.19028 6.74215 5.16265C6.74215 4.13957 6.75279 3.11604 6.74215 2.09341C6.73553 1.6628 6.57742 1.24828 6.29558 0.922654C6.22272 0.838896 6.15602 0.74997 6.09602 0.656573C5.92085 0.371424 6.08316 0.0459178 6.41664 0.00600568C6.46616 0.00120369 6.51591 -0.000721456 6.56565 0.000240385C7.49486 0.000240385 8.42407 0.000240385 9.35328 0.000240385C9.77192 0.000240385 9.92979 0.144811 9.92979 0.567436C9.93644 1.76214 9.93334 2.95684 9.93556 4.15154C9.93433 4.25652 9.94204 4.36141 9.95862 4.46507C10.0163 4.79279 10.2278 4.90854 10.5067 4.72672C10.7477 4.57257 10.9673 4.38739 11.16 4.17593C11.9454 3.30053 12.5276 2.29119 13.0487 1.24372C13.1667 1.00647 13.2766 0.765222 13.384 0.522645C13.5339 0.184279 13.7871 0.00644915 14.1596 0.00600568C14.8071 0.00600568 15.4544 0.00600568 16.1015 0.00600568C16.1843 0.00649801 16.2666 0.0179803 16.3463 0.0401522C16.5805 0.105785 16.7078 0.267651 16.6403 0.499141C16.5452 0.849601 16.4163 1.19 16.2554 1.51557C15.6629 2.65617 14.9281 3.70852 14.1893 4.75687C13.8274 5.27085 13.8456 5.41321 14.2802 5.86953C14.8904 6.51034 15.4993 7.15249 16.0891 7.81148C16.4678 8.23499 16.8018 8.6962 17 9.23944V9.53834Z" fill="#EBEBF5"/>
</svg>
