<svg width="22" height="16" viewBox="0 0 22 16" fill="none" xmlns="http://www.w3.org/2000/svg">
<path d="M7.61958 1.17082C7.73932 0.802297 8.26068 0.802296 8.38042 1.17082L9.93082 5.94245C9.98437 6.10726 10.138 6.21885 10.3112 6.21885H15.3284C15.7159 6.21885 15.877 6.71469 15.5635 6.94245L11.5046 9.89149C11.3644 9.99334 11.3057 10.1739 11.3592 10.3387L12.9096 15.1103C13.0294 15.4789 12.6076 15.7853 12.2941 15.5575L8.23511 12.6085C8.09492 12.5067 7.90508 12.5067 7.76489 12.6085L3.70589 15.5575C3.39241 15.7853 2.97061 15.4789 3.09036 15.1103L4.64075 10.3387C4.6943 10.1739 4.63564 9.99334 4.49544 9.89149L0.436451 6.94245C0.122966 6.71469 0.284076 6.21885 0.671565 6.21885H5.68876C5.86205 6.21885 6.01563 6.10726 6.06918 5.94245L7.61958 1.17082Z" fill="#D5FB50"/>
</svg>
