<svg width="13" height="13" viewBox="0 0 13 13" fill="none" xmlns="http://www.w3.org/2000/svg">
<path d="M10.563 5.28048C10.563 6.44574 10.1847 7.52214 9.54734 8.39545L12.762 11.612C13.0793 11.9293 13.0793 12.4447 12.762 12.762C12.4446 13.0793 11.9291 13.0793 11.6117 12.762L8.39709 9.54548C7.52361 10.1852 6.44699 10.561 5.28151 10.561C2.36398 10.561 0 8.19743 0 5.28048C0 2.36352 2.36398 0 5.28151 0C8.19903 0 10.563 2.36352 10.563 5.28048ZM5.28151 8.93619C7.30016 8.93619 8.93794 7.29874 8.93794 5.28048C8.93794 3.26222 7.30016 1.62476 5.28151 1.62476C3.26285 1.62476 1.62508 3.26222 1.62508 5.28048C1.62508 7.29874 3.26285 8.93619 5.28151 8.93619Z" fill="#EBEBF5"/>
</svg>
