<svg width="14" height="14" viewBox="0 0 14 14" fill="none" xmlns="http://www.w3.org/2000/svg">
<path d="M5.65 13.9173C4.42352 13.6668 3.28066 13.0963 2.38868 12.3031C0.0890261 10.2646 -0.628744 7.05718 0.590768 4.19765C0.89042 3.49494 1.37822 2.78528 1.97753 2.16606L2.50714 1.62338L2.54199 4.80991C2.57683 7.86424 2.5838 8.01731 2.73014 8.39997C3.02282 9.17225 3.32944 9.65928 3.86603 10.188C5.24582 11.5587 7.26673 11.8996 8.98798 11.0577C10.6047 10.2646 11.6221 8.53216 11.5037 6.77888C11.427 5.60306 11.0298 4.74033 10.1726 3.88456C9.52457 3.23751 8.76498 2.81311 7.94268 2.63917C7.09948 2.46523 7.14129 2.4374 7.14129 3.14707V3.75933L7.60122 3.84282C9.38519 4.16982 10.5699 5.9231 10.2005 7.69031C10.0821 8.25386 9.81725 8.7548 9.39216 9.214C8.74408 9.90975 7.83119 10.2437 7.03676 10.2437C5.71969 10.2437 4.62561 9.4923 4.08903 8.39301C4.08903 8.39301 3.94965 8.07993 3.90784 7.88512C3.64303 6.73713 3.81028 4.32984 3.81028 4.32984L3.78937 0.802392L3.99843 0.69803C4.10993 0.635412 4.22143 0.593667 4.24234 0.593667C4.26324 0.593667 4.28415 2.21476 4.29808 4.19765C4.29808 4.19765 4.04721 6.79279 4.3608 7.78771C4.40262 7.93382 4.49321 8.17733 4.49321 8.17733C4.76498 8.73393 5.20401 9.22791 5.77544 9.49925C6.20749 9.70102 6.43049 9.79843 7.0716 9.79843C7.48972 9.79843 7.85906 9.66623 8.29112 9.47143C8.79286 9.24183 9.37126 8.62957 9.58728 8.06601C10.1726 6.52145 9.35732 4.86557 7.77544 4.39941C7.12735 4.21156 7.14129 4.19765 7.14129 4.90035V5.51261L7.44791 5.5961C8.56289 5.89527 8.90436 7.39114 8.02631 8.15646C7.71969 8.4278 7.44094 8.54608 6.95314 8.54608C6.43049 8.54608 5.92875 8.23299 5.67091 7.74597C5.5176 7.45375 5.50366 7.18241 5.50366 7.05718C5.50366 5.89527 5.47579 3.79411 5.47579 3.79411L5.45488 0.19709L5.61516 0.155345C5.70575 0.134473 6.06115 0.0788129 6.40958 0.0370679C7.58728 -0.115997 9.32944 0.273623 10.5002 0.941542C12.096 1.85297 13.3016 3.41841 13.8033 5.22736C13.9775 5.84657 13.9984 6.03442 13.9984 7.02935C13.9984 8.02427 13.9775 8.21212 13.8103 8.82438C13.1274 11.2873 11.3852 13.0406 8.89739 13.792C8.37474 13.952 8.13084 13.9799 7.20401 14.0008C6.45836 14.0077 5.97753 13.9868 5.65 13.9173Z" fill="#C60C30"/>
</svg>
