<svg width="148" height="19" viewBox="0 0 148 19" fill="none" xmlns="http://www.w3.org/2000/svg">
<path d="M15.744 10.8C15.488 12.32 14.8 13.552 13.68 14.496C12.528 15.44 11.152 15.912 9.552 15.912C7.728 15.912 6.224 15.312 5.04 14.112C3.84 12.928 3.24 11.424 3.24 9.6C3.24 7.776 3.84 6.264 5.04 5.064C6.224 3.88 7.728 3.288 9.552 3.288C11.152 3.288 12.528 3.76 13.68 4.704C14.8 5.648 15.488 6.88 15.744 8.4H18.144C17.872 6.208 16.952 4.424 15.384 3.048C13.784 1.656 11.84 0.959999 9.552 0.959999C7.04 0.959999 4.96 1.776 3.312 3.408C1.664 5.04 0.84 7.104 0.84 9.6C0.84 12.096 1.664 14.16 3.312 15.792C4.96 17.424 7.04 18.24 9.552 18.24C11.84 18.24 13.784 17.544 15.384 16.152C16.952 14.776 17.872 12.992 18.144 10.8H15.744ZM28.9952 11.688C30.2432 11.4 31.2272 10.792 31.9472 9.864C32.6672 8.936 33.0272 7.832 33.0272 6.552C33.0272 4.984 32.5232 3.704 31.5152 2.712C30.4752 1.704 29.1072 1.2 27.4112 1.2H21.0272V18H23.4272V3.48H27.4112C28.3392 3.48 29.1072 3.784 29.7152 4.392C30.3232 4.984 30.6272 5.744 30.6272 6.672C30.6272 7.584 30.3232 8.336 29.7152 8.928C29.1072 9.536 28.3392 9.84 27.4112 9.84H25.1072L30.6272 18H33.2672L28.9952 11.688ZM46.6069 1.2L41.6869 9.336L36.7669 1.2H34.1269L40.4869 11.712V18H42.8869V11.712L49.2469 1.2H46.6069ZM53.9184 9.84V3.48H57.6624C58.5904 3.48 59.3584 3.784 59.9664 4.392C60.5744 4.984 60.8784 5.736 60.8784 6.648C60.8784 7.576 60.5744 8.336 59.9664 8.928C59.3584 9.536 58.5904 9.84 57.6624 9.84H53.9184ZM51.5184 1.2V18H53.9184V12.12H57.6624C59.3104 12.12 60.6624 11.608 61.7184 10.584C62.7584 9.56 63.2784 8.248 63.2784 6.648C63.2784 5.064 62.7584 3.76 61.7184 2.736C60.6624 1.712 59.3104 1.2 57.6624 1.2H51.5184ZM64.4831 1.2V3.48H69.5231V18H71.9231V3.48H76.9631V1.2H64.4831ZM86.3895 15.912C84.5655 15.912 83.0615 15.312 81.8775 14.112C80.6775 12.928 80.0775 11.424 80.0775 9.6C80.0775 7.776 80.6775 6.272 81.8775 5.088C83.0615 3.888 84.5655 3.288 86.3895 3.288C88.2135 3.288 89.7255 3.888 90.9255 5.088C92.1095 6.272 92.7015 7.776 92.7015 9.6C92.7015 11.424 92.1095 12.928 90.9255 14.112C89.7255 15.312 88.2135 15.912 86.3895 15.912ZM86.3895 0.959999C83.8775 0.959999 81.7975 1.776 80.1495 3.408C78.5015 5.04 77.6775 7.104 77.6775 9.6C77.6775 12.096 78.5015 14.16 80.1495 15.792C81.7975 17.424 83.8775 18.24 86.3895 18.24C88.9015 18.24 90.9815 17.424 92.6295 15.792C94.2775 14.16 95.1015 12.096 95.1015 9.6C95.1015 7.104 94.2775 5.04 92.6295 3.408C90.9815 1.776 88.9015 0.959999 86.3895 0.959999ZM98.0991 1.2V18H108.179V15.72H100.499V1.2H98.0991ZM110.696 18H113.096V1.2H110.696V18ZM131.102 1.2L124.862 10.56L118.622 1.2H116.942V18H119.342V6.48L124.862 14.76L130.382 6.48V18H132.782V1.2H131.102ZM136.617 1.2V18H147.657V15.72H139.017V10.68H146.937V8.4H139.017V3.48H147.657V1.2H136.617Z" fill="#D5FB50"/>
</svg>
